<svg width="18" height="17" viewBox="0 0 18 17" fill="none" xmlns="http://www.w3.org/2000/svg">
<path d="M9.15169 0.467545C8.05734 0.467545 6.97371 0.683093 5.96266 1.10188C4.95162 1.52067 4.03296 2.1345 3.25914 2.90832C1.69633 4.47112 0.818359 6.59074 0.818359 8.80088C0.818359 12.4842 3.21003 15.6092 6.51836 16.7175C6.93503 16.7842 7.06836 16.5259 7.06836 16.3009C7.06836 16.1092 7.06836 15.5842 7.06836 14.8925C4.76003 15.3925 4.26836 13.7759 4.26836 13.7759C3.88503 12.8092 3.34336 12.5509 3.34336 12.5509C2.58503 12.0342 3.40169 12.0509 3.40169 12.0509C4.23503 12.1092 4.67669 12.9092 4.67669 12.9092C5.40169 14.1759 6.62669 13.8009 7.10169 13.6009C7.17669 13.0592 7.39336 12.6925 7.62669 12.4842C5.77669 12.2759 3.83503 11.5592 3.83503 8.38421C3.83503 7.45921 4.15169 6.71755 4.69336 6.12588C4.61003 5.91754 4.31836 5.05088 4.77669 3.92588C4.77669 3.92588 5.47669 3.70088 7.06836 4.77588C7.72669 4.59255 8.44336 4.50088 9.15169 4.50088C9.86003 4.50088 10.5767 4.59255 11.235 4.77588C12.8267 3.70088 13.5267 3.92588 13.5267 3.92588C13.985 5.05088 13.6934 5.91754 13.61 6.12588C14.1517 6.71755 14.4684 7.45921 14.4684 8.38421C14.4684 11.5675 12.5184 12.2675 10.66 12.4759C10.96 12.7342 11.235 13.2425 11.235 14.0175C11.235 15.1342 11.235 16.0342 11.235 16.3009C11.235 16.5259 11.3684 16.7925 11.7934 16.7175C15.1017 15.6009 17.485 12.4842 17.485 8.80088C17.485 7.70653 17.2695 6.6229 16.8507 5.61185C16.4319 4.6008 15.8181 3.68214 15.0442 2.90832C14.2704 2.1345 13.3518 1.52067 12.3407 1.10188C11.3297 0.683093 10.246 0.467545 9.15169 0.467545Z" fill="white"/>
</svg>
