<svg width="31" height="30" viewBox="0 0 31 30" fill="none" xmlns="http://www.w3.org/2000/svg">
<path d="M15.2729 0.641571C13.3031 0.641571 11.3526 1.02956 9.5327 1.78338C7.71281 2.5372 6.05923 3.64209 4.66635 5.03497C1.8533 7.84801 0.272949 11.6633 0.272949 15.6416C0.272949 22.2716 4.57795 27.8966 10.5329 29.8916C11.2829 30.0116 11.5229 29.5466 11.5229 29.1416C11.5229 28.7966 11.5229 27.8516 11.5229 26.6066C7.36795 27.5066 6.48295 24.5966 6.48295 24.5966C5.79295 22.8566 4.81795 22.3916 4.81795 22.3916C3.45295 21.4616 4.92295 21.4916 4.92295 21.4916C6.42295 21.5966 7.21795 23.0366 7.21795 23.0366C8.52295 25.3166 10.7279 24.6416 11.5829 24.2816C11.7179 23.3066 12.1079 22.6466 12.5279 22.2716C9.19795 21.8966 5.70295 20.6066 5.70295 14.8916C5.70295 13.2266 6.27295 11.8916 7.24795 10.8266C7.09795 10.4516 6.57295 8.89157 7.39795 6.86657C7.39795 6.86657 8.65795 6.46157 11.5229 8.39657C12.7079 8.06657 13.9979 7.90157 15.2729 7.90157C16.5479 7.90157 17.8379 8.06657 19.0229 8.39657C21.8879 6.46157 23.1479 6.86657 23.1479 6.86657C23.9729 8.89157 23.4479 10.4516 23.2979 10.8266C24.2729 11.8916 24.8429 13.2266 24.8429 14.8916C24.8429 20.6216 21.3329 21.8816 17.9879 22.2566C18.5279 22.7216 19.0229 23.6366 19.0229 25.0316C19.0229 27.0416 19.0229 28.6616 19.0229 29.1416C19.0229 29.5466 19.2629 30.0266 20.0279 29.8916C25.9829 27.8816 30.2729 22.2716 30.2729 15.6416C30.2729 13.6717 29.885 11.7212 29.1311 9.90132C28.3773 8.08144 27.2724 6.42785 25.8795 5.03497C24.4867 3.64209 22.8331 2.5372 21.0132 1.78338C19.1933 1.02956 17.2428 0.641571 15.2729 0.641571Z" fill="#6E6E6E"/>
</svg>
