<svg width="193" height="15" viewBox="0 0 193 15" fill="none" xmlns="http://www.w3.org/2000/svg">
<path d="M5.48 14.24C4.6 14.24 3.74667 14.0733 2.92 13.74C2.10667 13.4067 1.38667 12.9333 0.76 12.32L2.12 10.74C2.58667 11.18 3.12 11.54 3.72 11.82C4.32 12.0867 4.92 12.22 5.52 12.22C6.26667 12.22 6.83333 12.0667 7.22 11.76C7.60667 11.4533 7.8 11.0467 7.8 10.54C7.8 10.2733 7.74667 10.0467 7.64 9.86C7.54667 9.67333 7.40667 9.51333 7.22 9.38C7.04667 9.23333 6.83333 9.1 6.58 8.98C6.34 8.86 6.07333 8.74 5.78 8.62L3.98 7.84C3.66 7.70667 3.34 7.54 3.02 7.34C2.71333 7.14 2.43333 6.9 2.18 6.62C1.92667 6.34 1.72 6.01333 1.56 5.64C1.41333 5.26667 1.34 4.84 1.34 4.36C1.34 3.84 1.44667 3.36 1.66 2.92C1.88667 2.46667 2.19333 2.07333 2.58 1.74C2.96667 1.40667 3.42667 1.14667 3.96 0.96C4.50667 0.773333 5.1 0.68 5.74 0.68C6.5 0.68 7.23333 0.833333 7.94 1.14C8.64667 1.43333 9.25333 1.83333 9.76 2.34L8.58 3.82C8.15333 3.47333 7.71333 3.2 7.26 3C6.80667 2.8 6.3 2.7 5.74 2.7C5.11333 2.7 4.61333 2.84 4.24 3.12C3.86667 3.38667 3.68 3.76 3.68 4.24C3.68 4.49333 3.73333 4.71333 3.84 4.9C3.96 5.07333 4.11333 5.23333 4.3 5.38C4.5 5.51333 4.72667 5.64 4.98 5.76C5.23333 5.86667 5.49333 5.97333 5.76 6.08L7.54 6.82C7.92667 6.98 8.28 7.16667 8.6 7.38C8.92 7.59333 9.19333 7.84 9.42 8.12C9.66 8.4 9.84667 8.72667 9.98 9.1C10.1133 9.46 10.18 9.88 10.18 10.36C10.18 10.8933 10.0733 11.3933 9.86 11.86C9.64667 12.3267 9.33333 12.74 8.92 13.1C8.52 13.4467 8.02667 13.7267 7.44 13.94C6.86667 14.14 6.21333 14.24 5.48 14.24ZM14.5584 14V0.919999H17.1784L19.4984 7.32C19.6451 7.73333 19.7851 8.16 19.9184 8.6C20.0518 9.02667 20.1918 9.45333 20.3384 9.88H20.4184C20.5651 9.45333 20.6984 9.02667 20.8184 8.6C20.9518 8.16 21.0918 7.73333 21.2384 7.32L23.4984 0.919999H26.1384V14H23.9984V8.02C23.9984 7.71333 24.0051 7.38 24.0184 7.02C24.0451 6.66 24.0718 6.3 24.0984 5.94C24.1251 5.56667 24.1584 5.20667 24.1984 4.86C24.2384 4.5 24.2718 4.16667 24.2984 3.86H24.2184L23.1584 6.9L21.0184 12.78H19.6384L17.4784 6.9L16.4384 3.86H16.3584C16.3851 4.16667 16.4118 4.5 16.4384 4.86C16.4784 5.20667 16.5118 5.56667 16.5384 5.94C16.5784 6.3 16.6051 6.66 16.6184 7.02C16.6451 7.38 16.6584 7.71333 16.6584 8.02V14H14.5584ZM36.5408 14.24C35.6874 14.24 34.9074 14.0867 34.2008 13.78C33.4941 13.46 32.8874 13.0067 32.3808 12.42C31.8741 11.82 31.4808 11.1 31.2008 10.26C30.9208 9.42 30.7808 8.46667 30.7808 7.4C30.7808 6.34667 30.9208 5.40667 31.2008 4.58C31.4808 3.74 31.8741 3.03333 32.3808 2.46C32.8874 1.88667 33.4941 1.44667 34.2008 1.14C34.9074 0.833333 35.6874 0.68 36.5408 0.68C37.3941 0.68 38.1741 0.833333 38.8808 1.14C39.5874 1.44667 40.1941 1.88667 40.7008 2.46C41.2208 3.03333 41.6208 3.74 41.9008 4.58C42.1808 5.40667 42.3208 6.34667 42.3208 7.4C42.3208 8.46667 42.1808 9.42 41.9008 10.26C41.6208 11.1 41.2208 11.82 40.7008 12.42C40.1941 13.0067 39.5874 13.46 38.8808 13.78C38.1741 14.0867 37.3941 14.24 36.5408 14.24ZM36.5408 12.22C37.0608 12.22 37.5274 12.1067 37.9408 11.88C38.3541 11.6533 38.7074 11.3333 39.0008 10.92C39.2941 10.4933 39.5208 9.98667 39.6808 9.4C39.8408 8.8 39.9208 8.13333 39.9208 7.4C39.9208 5.93333 39.6141 4.78667 39.0008 3.96C38.4008 3.12 37.5808 2.7 36.5408 2.7C35.5008 2.7 34.6741 3.12 34.0608 3.96C33.4608 4.78667 33.1608 5.93333 33.1608 7.4C33.1608 8.13333 33.2408 8.8 33.4008 9.4C33.5608 9.98667 33.7874 10.4933 34.0808 10.92C34.3741 11.3333 34.7274 11.6533 35.1408 11.88C35.5541 12.1067 36.0208 12.22 36.5408 12.22ZM46.9373 14V0.919999H49.2573V6.86H49.3173L53.9773 0.919999H56.5573L52.5373 6.02L57.2373 14H54.6773L51.1373 7.84L49.2573 10.18V14H46.9373ZM60.8709 14V0.919999H68.7509V2.88H63.1909V6.22H67.8909V8.18H63.1909V12.04H68.9509V14H60.8709ZM76.2727 14V2.88H72.4927V0.919999H82.3727V2.88H78.5927V14H76.2727ZM86.5506 14V0.919999H90.9706C91.6506 0.919999 92.284 0.986666 92.8706 1.12C93.4573 1.25333 93.964 1.47333 94.3906 1.78C94.8173 2.07333 95.1506 2.46667 95.3906 2.96C95.644 3.45333 95.7706 4.06667 95.7706 4.8C95.7706 5.8 95.5306 6.60667 95.0506 7.22C94.584 7.83333 93.9573 8.27333 93.1706 8.54L96.2906 14H93.6906L90.8706 8.88H88.8706V14H86.5506ZM88.8706 7.04H90.7306C91.624 7.04 92.304 6.85333 92.7706 6.48C93.2506 6.10667 93.4906 5.54667 93.4906 4.8C93.4906 4.04 93.2506 3.51333 92.7706 3.22C92.304 2.92667 91.624 2.78 90.7306 2.78H88.8706V7.04ZM100.387 14V0.919999H108.267V2.88H102.707V6.22H107.407V8.18H102.707V12.04H108.467V14H100.387ZM113.148 14V0.919999H121.028V2.88H115.468V6.22H120.168V8.18H115.468V12.04H121.228V14H113.148ZM129.73 14.24C128.85 14.24 127.997 14.0733 127.17 13.74C126.357 13.4067 125.637 12.9333 125.01 12.32L126.37 10.74C126.837 11.18 127.37 11.54 127.97 11.82C128.57 12.0867 129.17 12.22 129.77 12.22C130.517 12.22 131.083 12.0667 131.47 11.76C131.857 11.4533 132.05 11.0467 132.05 10.54C132.05 10.2733 131.997 10.0467 131.89 9.86C131.797 9.67333 131.657 9.51333 131.47 9.38C131.297 9.23333 131.083 9.1 130.83 8.98C130.59 8.86 130.323 8.74 130.03 8.62L128.23 7.84C127.91 7.70667 127.59 7.54 127.27 7.34C126.963 7.14 126.683 6.9 126.43 6.62C126.177 6.34 125.97 6.01333 125.81 5.64C125.663 5.26667 125.59 4.84 125.59 4.36C125.59 3.84 125.697 3.36 125.91 2.92C126.137 2.46667 126.443 2.07333 126.83 1.74C127.217 1.40667 127.677 1.14667 128.21 0.96C128.757 0.773333 129.35 0.68 129.99 0.68C130.75 0.68 131.483 0.833333 132.19 1.14C132.897 1.43333 133.503 1.83333 134.01 2.34L132.83 3.82C132.403 3.47333 131.963 3.2 131.51 3C131.057 2.8 130.55 2.7 129.99 2.7C129.363 2.7 128.863 2.84 128.49 3.12C128.117 3.38667 127.93 3.76 127.93 4.24C127.93 4.49333 127.983 4.71333 128.09 4.9C128.21 5.07333 128.363 5.23333 128.55 5.38C128.75 5.51333 128.977 5.64 129.23 5.76C129.483 5.86667 129.743 5.97333 130.01 6.08L131.79 6.82C132.177 6.98 132.53 7.16667 132.85 7.38C133.17 7.59333 133.443 7.84 133.67 8.12C133.91 8.4 134.097 8.72667 134.23 9.1C134.363 9.46 134.43 9.88 134.43 10.36C134.43 10.8933 134.323 11.3933 134.11 11.86C133.897 12.3267 133.583 12.74 133.17 13.1C132.77 13.4467 132.277 13.7267 131.69 13.94C131.117 14.14 130.463 14.24 129.73 14.24Z" fill="#8C8C8C"/>
<path d="M142.952 14V0.88H150.512V2.28H144.612V6.72H149.612V8.12H144.612V14H142.952ZM156.182 14.24C155.582 14.24 155.008 14.1267 154.462 13.9C153.928 13.6733 153.455 13.3467 153.042 12.92C152.628 12.48 152.295 11.9467 152.042 11.32C151.802 10.68 151.682 9.96 151.682 9.16C151.682 8.34667 151.802 7.62667 152.042 7C152.295 6.36 152.628 5.82 153.042 5.38C153.455 4.94 153.928 4.60667 154.462 4.38C155.008 4.15333 155.582 4.04 156.182 4.04C156.782 4.04 157.348 4.15333 157.882 4.38C158.428 4.60667 158.908 4.94 159.322 5.38C159.735 5.82 160.062 6.36 160.302 7C160.555 7.62667 160.682 8.34667 160.682 9.16C160.682 9.96 160.555 10.68 160.302 11.32C160.062 11.9467 159.735 12.48 159.322 12.92C158.908 13.3467 158.428 13.6733 157.882 13.9C157.348 14.1267 156.782 14.24 156.182 14.24ZM156.182 12.88C156.595 12.88 156.975 12.7933 157.322 12.62C157.668 12.4333 157.962 12.18 158.202 11.86C158.455 11.5267 158.648 11.1333 158.782 10.68C158.915 10.2267 158.982 9.72 158.982 9.16C158.982 8.6 158.915 8.09333 158.782 7.64C158.648 7.17333 158.455 6.77333 158.202 6.44C157.962 6.10667 157.668 5.85333 157.322 5.68C156.975 5.49333 156.595 5.4 156.182 5.4C155.768 5.4 155.388 5.49333 155.042 5.68C154.695 5.85333 154.395 6.10667 154.142 6.44C153.902 6.77333 153.715 7.17333 153.582 7.64C153.448 8.09333 153.382 8.6 153.382 9.16C153.382 9.72 153.448 10.2267 153.582 10.68C153.715 11.1333 153.902 11.5267 154.142 11.86C154.395 12.18 154.695 12.4333 155.042 12.62C155.388 12.7933 155.768 12.88 156.182 12.88ZM163.242 14V4.28H164.602L164.742 6.04H164.802C165.135 5.42667 165.535 4.94 166.002 4.58C166.482 4.22 167.002 4.04 167.562 4.04C167.948 4.04 168.295 4.10667 168.602 4.24L168.282 5.68C168.122 5.62667 167.975 5.58667 167.842 5.56C167.708 5.53333 167.542 5.52 167.342 5.52C166.928 5.52 166.495 5.68667 166.042 6.02C165.602 6.35333 165.215 6.93333 164.882 7.76V14H163.242ZM173.92 14.24C173.267 14.24 172.653 14.1267 172.08 13.9C171.52 13.66 171.027 13.3267 170.6 12.9C170.187 12.46 169.86 11.9267 169.62 11.3C169.38 10.6733 169.26 9.96 169.26 9.16C169.26 8.36 169.38 7.64667 169.62 7.02C169.873 6.38 170.2 5.84 170.6 5.4C171.013 4.96 171.48 4.62667 172 4.4C172.52 4.16 173.06 4.04 173.62 4.04C174.233 4.04 174.78 4.14667 175.26 4.36C175.753 4.57333 176.16 4.88 176.48 5.28C176.813 5.68 177.067 6.16 177.24 6.72C177.413 7.28 177.5 7.90667 177.5 8.6C177.5 8.77333 177.493 8.94667 177.48 9.12C177.48 9.28 177.467 9.42 177.44 9.54H170.88C170.947 10.58 171.267 11.4067 171.84 12.02C172.427 12.62 173.187 12.92 174.12 12.92C174.587 12.92 175.013 12.8533 175.4 12.72C175.8 12.5733 176.18 12.3867 176.54 12.16L177.12 13.24C176.693 13.5067 176.22 13.74 175.7 13.94C175.18 14.14 174.587 14.24 173.92 14.24ZM170.86 8.36H176.06C176.06 7.37333 175.847 6.62667 175.42 6.12C175.007 5.6 174.42 5.34 173.66 5.34C173.313 5.34 172.98 5.40667 172.66 5.54C172.353 5.67333 172.073 5.87333 171.82 6.14C171.567 6.39333 171.353 6.70667 171.18 7.08C171.02 7.45333 170.913 7.88 170.86 8.36ZM182.442 14.24C181.748 14.24 181.088 14.1133 180.462 13.86C179.835 13.6067 179.288 13.2867 178.822 12.9L179.642 11.8C180.068 12.1467 180.502 12.4267 180.942 12.64C181.395 12.8533 181.915 12.96 182.502 12.96C183.142 12.96 183.622 12.8133 183.942 12.52C184.262 12.2267 184.422 11.8667 184.422 11.44C184.422 11.1867 184.355 10.9667 184.222 10.78C184.088 10.5933 183.915 10.4333 183.702 10.3C183.502 10.1533 183.268 10.0267 183.002 9.92C182.735 9.81333 182.468 9.70667 182.202 9.6C181.855 9.48 181.508 9.34667 181.162 9.2C180.815 9.04 180.502 8.85333 180.222 8.64C179.955 8.41333 179.735 8.15333 179.562 7.86C179.388 7.56667 179.302 7.21333 179.302 6.8C179.302 6.41333 179.375 6.05333 179.522 5.72C179.682 5.37333 179.902 5.08 180.182 4.84C180.475 4.58667 180.828 4.39333 181.242 4.26C181.655 4.11333 182.122 4.04 182.642 4.04C183.255 4.04 183.815 4.14667 184.322 4.36C184.842 4.57333 185.288 4.83333 185.662 5.14L184.882 6.18C184.548 5.92667 184.202 5.72 183.842 5.56C183.482 5.4 183.088 5.32 182.662 5.32C182.048 5.32 181.595 5.46 181.302 5.74C181.022 6.02 180.882 6.34667 180.882 6.72C180.882 6.94667 180.942 7.14667 181.062 7.32C181.182 7.48 181.342 7.62667 181.542 7.76C181.742 7.88 181.968 7.99333 182.222 8.1C182.488 8.19333 182.762 8.29333 183.042 8.4C183.388 8.53333 183.735 8.67333 184.082 8.82C184.442 8.96667 184.762 9.15333 185.042 9.38C185.322 9.59333 185.548 9.86 185.722 10.18C185.908 10.5 186.002 10.8867 186.002 11.34C186.002 11.74 185.922 12.1133 185.762 12.46C185.615 12.8067 185.388 13.1133 185.082 13.38C184.788 13.6467 184.415 13.8533 183.962 14C183.522 14.16 183.015 14.24 182.442 14.24ZM190.95 14.24C190.43 14.24 189.99 14.16 189.63 14C189.283 13.84 188.997 13.62 188.77 13.34C188.557 13.06 188.403 12.72 188.31 12.32C188.217 11.92 188.17 11.48 188.17 11V5.62H186.73V4.38L188.25 4.28L188.45 1.56H189.83V4.28H192.45V5.62H189.83V11.02C189.83 11.62 189.937 12.0867 190.15 12.42C190.377 12.74 190.77 12.9 191.33 12.9C191.503 12.9 191.69 12.8733 191.89 12.82C192.09 12.7667 192.27 12.7067 192.43 12.64L192.75 13.88C192.483 13.9733 192.19 14.0533 191.87 14.12C191.563 14.2 191.257 14.24 190.95 14.24Z" fill="#40AFD1"/>
</svg>
